<svg xmlns="http://www.w3.org/2000/svg" xmlns:xlink="http://www.w3.org/1999/xlink" width="384" zoomAndPan="magnify" viewBox="0 0 288 287.999989" height="384" preserveAspectRatio="xMidYMid meet" version="1.0"><defs><g/><clipPath id="875428be53"><path d="M 146 0.238281 L 219.761719 0.238281 L 219.761719 85 L 146 85 Z M 146 0.238281 " clip-rule="nonzero"/></clipPath><clipPath id="0c815925bc"><path d="M 159.746094 0.519531 L 219.988281 11.042969 L 207.097656 84.839844 L 146.855469 74.316406 Z M 159.746094 0.519531 " clip-rule="nonzero"/></clipPath><clipPath id="84c831ffe7"><path d="M 8 40 L 47 40 L 47 79 L 8 79 Z M 8 40 " clip-rule="nonzero"/></clipPath><clipPath id="b7d00847a3"><path d="M 13.746094 0.519531 L 73.988281 11.042969 L 61.097656 84.839844 L 0.855469 74.316406 Z M 13.746094 0.519531 " clip-rule="nonzero"/></clipPath><clipPath id="ee530b5771"><path d="M 73.695312 10.992188 L 13.453125 0.46875 L 0.5625 74.265625 L 60.804688 84.789062 Z M 73.695312 10.992188 " clip-rule="nonzero"/></clipPath><clipPath id="6e952e91d5"><path d="M 8 40 L 40 40 L 40 74 L 8 74 Z M 8 40 " clip-rule="nonzero"/></clipPath><clipPath id="6d280fa383"><path d="M 13.746094 0.519531 L 73.988281 11.042969 L 61.097656 84.839844 L 0.855469 74.316406 Z M 13.746094 0.519531 " clip-rule="nonzero"/></clipPath><clipPath id="034b560acb"><path d="M 73.695312 10.992188 L 13.453125 0.46875 L 0.5625 74.265625 L 60.804688 84.789062 Z M 73.695312 10.992188 " clip-rule="nonzero"/></clipPath><clipPath id="fcbe0210ba"><path d="M 18 43 L 27 43 L 27 50 L 18 50 Z M 18 43 " clip-rule="nonzero"/></clipPath><clipPath id="f1750417ff"><path d="M 13.746094 0.519531 L 73.988281 11.042969 L 61.097656 84.839844 L 0.855469 74.316406 Z M 13.746094 0.519531 " clip-rule="nonzero"/></clipPath><clipPath id="8127057de3"><path d="M 73.695312 10.992188 L 13.453125 0.46875 L 0.5625 74.265625 L 60.804688 84.789062 Z M 73.695312 10.992188 " clip-rule="nonzero"/></clipPath><clipPath id="fc1d540007"><path d="M 13 49 L 18 49 L 18 54 L 13 54 Z M 13 49 " clip-rule="nonzero"/></clipPath><clipPath id="4478fca02f"><path d="M 13.746094 0.519531 L 73.988281 11.042969 L 61.097656 84.839844 L 0.855469 74.316406 Z M 13.746094 0.519531 " clip-rule="nonzero"/></clipPath><clipPath id="62325eaf2a"><path d="M 73.695312 10.992188 L 13.453125 0.46875 L 0.5625 74.265625 L 60.804688 84.789062 Z M 73.695312 10.992188 " clip-rule="nonzero"/></clipPath><clipPath id="fcb3372d5b"><path d="M 11 2 L 34 2 L 34 24 L 11 24 Z M 11 2 " clip-rule="nonzero"/></clipPath><clipPath id="86c664b1ea"><path d="M 13.746094 0.519531 L 73.988281 11.042969 L 61.097656 84.839844 L 0.855469 74.316406 Z M 13.746094 0.519531 " clip-rule="nonzero"/></clipPath><clipPath id="3a2ffdfed4"><path d="M 73.695312 10.992188 L 13.453125 0.46875 L 0.5625 74.265625 L 60.804688 84.789062 Z M 73.695312 10.992188 " clip-rule="nonzero"/></clipPath><clipPath id="4024aa1fad"><path d="M 11 2 L 30 2 L 30 21 L 11 21 Z M 11 2 " clip-rule="nonzero"/></clipPath><clipPath id="37742656aa"><path d="M 13.746094 0.519531 L 73.988281 11.042969 L 61.097656 84.839844 L 0.855469 74.316406 Z M 13.746094 0.519531 " clip-rule="nonzero"/></clipPath><clipPath id="8821c465fb"><path d="M 73.695312 10.992188 L 13.453125 0.46875 L 0.5625 74.265625 L 60.804688 84.789062 Z M 73.695312 10.992188 " clip-rule="nonzero"/></clipPath><clipPath id="81e330cae6"><path d="M 17 3 L 23 3 L 23 8 L 17 8 Z M 17 3 " clip-rule="nonzero"/></clipPath><clipPath id="2251c63e9c"><path d="M 13.746094 0.519531 L 73.988281 11.042969 L 61.097656 84.839844 L 0.855469 74.316406 Z M 13.746094 0.519531 " clip-rule="nonzero"/></clipPath><clipPath id="a45cc0b233"><path d="M 73.695312 10.992188 L 13.453125 0.46875 L 0.5625 74.265625 L 60.804688 84.789062 Z M 73.695312 10.992188 " clip-rule="nonzero"/></clipPath><clipPath id="19ccb69b6d"><path d="M 14 7 L 17 7 L 17 10 L 14 10 Z M 14 7 " clip-rule="nonzero"/></clipPath><clipPath id="a94b6c8a14"><path d="M 13.746094 0.519531 L 73.988281 11.042969 L 61.097656 84.839844 L 0.855469 74.316406 Z M 13.746094 0.519531 " clip-rule="nonzero"/></clipPath><clipPath id="f7ec033616"><path d="M 73.695312 10.992188 L 13.453125 0.46875 L 0.5625 74.265625 L 60.804688 84.789062 Z M 73.695312 10.992188 " clip-rule="nonzero"/></clipPath><clipPath id="23e3722869"><path d="M 47 20 L 70 20 L 70 43 L 47 43 Z M 47 20 " clip-rule="nonzero"/></clipPath><clipPath id="3f68a67311"><path d="M 13.746094 0.519531 L 73.988281 11.042969 L 61.097656 84.839844 L 0.855469 74.316406 Z M 13.746094 0.519531 " clip-rule="nonzero"/></clipPath><clipPath id="b4cf86bbe5"><path d="M 73.695312 10.992188 L 13.453125 0.46875 L 0.5625 74.265625 L 60.804688 84.789062 Z M 73.695312 10.992188 " clip-rule="nonzero"/></clipPath><clipPath id="3384c3e3a6"><path d="M 47 20 L 66 20 L 66 40 L 47 40 Z M 47 20 " clip-rule="nonzero"/></clipPath><clipPath id="04db1c2b73"><path d="M 13.746094 0.519531 L 73.988281 11.042969 L 61.097656 84.839844 L 0.855469 74.316406 Z M 13.746094 0.519531 " clip-rule="nonzero"/></clipPath><clipPath id="afb8f9d5c1"><path d="M 73.695312 10.992188 L 13.453125 0.46875 L 0.5625 74.265625 L 60.804688 84.789062 Z M 73.695312 10.992188 " clip-rule="nonzero"/></clipPath><clipPath id="b625e83ba5"><path d="M 53 22 L 59 22 L 59 26 L 53 26 Z M 53 22 " clip-rule="nonzero"/></clipPath><clipPath id="1be82e82c6"><path d="M 13.746094 0.519531 L 73.988281 11.042969 L 61.097656 84.839844 L 0.855469 74.316406 Z M 13.746094 0.519531 " clip-rule="nonzero"/></clipPath><clipPath id="ab064b0372"><path d="M 73.695312 10.992188 L 13.453125 0.46875 L 0.5625 74.265625 L 60.804688 84.789062 Z M 73.695312 10.992188 " clip-rule="nonzero"/></clipPath><clipPath id="3d8b3d9bce"><path d="M 50 25 L 54 25 L 54 29 L 50 29 Z M 50 25 " clip-rule="nonzero"/></clipPath><clipPath id="bb65966f89"><path d="M 13.746094 0.519531 L 73.988281 11.042969 L 61.097656 84.839844 L 0.855469 74.316406 Z M 13.746094 0.519531 " clip-rule="nonzero"/></clipPath><clipPath id="8f8e32aa6e"><path d="M 73.695312 10.992188 L 13.453125 0.46875 L 0.5625 74.265625 L 60.804688 84.789062 Z M 73.695312 10.992188 " clip-rule="nonzero"/></clipPath><clipPath id="90f16215e9"><rect x="0" width="74" y="0" height="85"/></clipPath><clipPath id="b1b3ce7ae8"><path d="M 0.878906 38 L 155 38 L 155 88.558594 L 0.878906 88.558594 Z M 0.878906 38 " clip-rule="nonzero"/></clipPath><clipPath id="d49f90e20e"><path d="M 116 2 L 154.71875 2 L 154.71875 41 L 116 41 Z M 116 2 " clip-rule="nonzero"/></clipPath><clipPath id="29909d00f8"><rect x="0" width="155" y="0" height="51"/></clipPath><clipPath id="1feaf5ff25"><rect x="0" width="220" y="0" height="89"/></clipPath></defs><rect x="-28.8" width="345.6" fill="#ffffff" y="-28.799999" height="345.599986" fill-opacity="1"/><rect x="-28.8" width="345.6" fill="#ffffff" y="-28.799999" height="345.599986" fill-opacity="1"/><g transform="matrix(1, 0, 0, 1, 32, 90)"><g clip-path="url(#1feaf5ff25)"><g clip-path="url(#875428be53)"><g clip-path="url(#0c815925bc)"><g transform="matrix(1, 0, 0, 1, 146, 0)"><g clip-path="url(#90f16215e9)"><g clip-path="url(#84c831ffe7)"><g clip-path="url(#b7d00847a3)"><g clip-path="url(#ee530b5771)"><path fill="#cde1fd" d="M 30.609375 41.113281 C 20.324219 39.316406 10.53125 46.195312 8.734375 56.480469 C 6.9375 66.765625 13.820312 76.554688 24.101562 78.351562 C 34.386719 80.148438 44.179688 73.269531 45.976562 62.984375 C 47.773438 52.699219 40.890625 42.910156 30.609375 41.113281 Z M 30.609375 41.113281 " fill-opacity="1" fill-rule="evenodd"/></g></g></g><g clip-path="url(#6e952e91d5)"><g clip-path="url(#6d280fa383)"><g clip-path="url(#034b560acb)"><path fill="#dfecff" d="M 28.757812 40.882812 C 19.175781 40.15625 10.425781 46.816406 8.734375 56.480469 C 7.941406 61.019531 8.839844 65.460938 10.976562 69.164062 C 13.308594 71.351562 16.285156 72.910156 19.675781 73.5 C 28.929688 75.117188 37.742188 68.925781 39.359375 59.671875 C 40.777344 51.539062 36.171875 43.75 28.757812 40.882812 Z M 28.757812 40.882812 " fill-opacity="1" fill-rule="evenodd"/></g></g></g><g clip-path="url(#fcbe0210ba)"><g clip-path="url(#f1750417ff)"><g clip-path="url(#8127057de3)"><path fill="#f6faff" d="M 21.660156 44.136719 C 19.449219 45.222656 18.164062 47.132812 18.789062 48.40625 C 19.414062 49.679688 21.714844 49.832031 23.925781 48.75 C 26.136719 47.664062 27.421875 45.75 26.796875 44.476562 C 26.171875 43.203125 23.871094 43.050781 21.660156 44.136719 Z M 21.660156 44.136719 " fill-opacity="1" fill-rule="evenodd"/></g></g></g><g clip-path="url(#fc1d540007)"><g clip-path="url(#4478fca02f)"><g clip-path="url(#62325eaf2a)"><path fill="#f6faff" d="M 14.390625 50.738281 C 13.5625 51.828125 13.46875 53.152344 14.183594 53.695312 C 14.894531 54.238281 16.148438 53.792969 16.976562 52.703125 C 17.804688 51.613281 17.898438 50.289062 17.183594 49.746094 C 16.46875 49.203125 15.21875 49.648438 14.390625 50.738281 Z M 14.390625 50.738281 " fill-opacity="1" fill-rule="evenodd"/></g></g></g><g clip-path="url(#fcb3372d5b)"><g clip-path="url(#86c664b1ea)"><g clip-path="url(#3a2ffdfed4)"><path fill="#cde1fd" d="M 24.3125 2.367188 C 18.5 1.351562 12.960938 5.242188 11.945312 11.054688 C 10.929688 16.871094 14.820312 22.410156 20.636719 23.425781 C 26.453125 24.441406 31.988281 20.550781 33.003906 14.734375 C 34.019531 8.917969 30.128906 3.382812 24.3125 2.367188 Z M 24.3125 2.367188 " fill-opacity="1" fill-rule="evenodd"/></g></g></g><g clip-path="url(#4024aa1fad)"><g clip-path="url(#37742656aa)"><g clip-path="url(#8821c465fb)"><path fill="#dfecff" d="M 23.269531 2.234375 C 17.847656 1.828125 12.898438 5.589844 11.945312 11.054688 C 11.496094 13.621094 12.003906 16.136719 13.210938 18.230469 C 14.53125 19.464844 16.214844 20.347656 18.132812 20.683594 C 23.363281 21.597656 28.347656 18.09375 29.261719 12.859375 C 30.066406 8.261719 27.460938 3.859375 23.269531 2.234375 Z M 23.269531 2.234375 " fill-opacity="1" fill-rule="evenodd"/></g></g></g><g clip-path="url(#81e330cae6)"><g clip-path="url(#2251c63e9c)"><g clip-path="url(#a45cc0b233)"><path fill="#f6faff" d="M 19.253906 4.074219 C 18.003906 4.691406 17.277344 5.769531 17.632812 6.492188 C 17.984375 7.210938 19.285156 7.296875 20.535156 6.683594 C 21.785156 6.070312 22.511719 4.988281 22.160156 4.269531 C 21.804688 3.546875 20.503906 3.460938 19.253906 4.074219 Z M 19.253906 4.074219 " fill-opacity="1" fill-rule="evenodd"/></g></g></g><g clip-path="url(#19ccb69b6d)"><g clip-path="url(#a94b6c8a14)"><g clip-path="url(#f7ec033616)"><path fill="#f6faff" d="M 15.144531 7.808594 C 14.675781 8.425781 14.621094 9.175781 15.027344 9.480469 C 15.429688 9.789062 16.136719 9.539062 16.605469 8.921875 C 17.074219 8.304688 17.128906 7.554688 16.722656 7.25 C 16.320312 6.941406 15.613281 7.191406 15.144531 7.808594 Z M 15.144531 7.808594 " fill-opacity="1" fill-rule="evenodd"/></g></g></g><g clip-path="url(#23e3722869)"><g clip-path="url(#3f68a67311)"><g clip-path="url(#b4cf86bbe5)"><path fill="#cde1fd" d="M 60.707031 20.890625 C 54.695312 19.84375 48.96875 23.863281 47.917969 29.878906 C 46.871094 35.890625 50.890625 41.617188 56.90625 42.664062 C 62.917969 43.714844 68.644531 39.691406 69.695312 33.679688 C 70.742188 27.667969 66.71875 21.941406 60.707031 20.890625 Z M 60.707031 20.890625 " fill-opacity="1" fill-rule="evenodd"/></g></g></g><g clip-path="url(#3384c3e3a6)"><g clip-path="url(#04db1c2b73)"><g clip-path="url(#afb8f9d5c1)"><path fill="#dfecff" d="M 59.625 20.757812 C 54.023438 20.332031 48.90625 24.226562 47.917969 29.878906 C 47.457031 32.53125 47.980469 35.128906 49.230469 37.292969 C 50.59375 38.574219 52.335938 39.484375 54.316406 39.828125 C 59.726562 40.773438 64.878906 37.152344 65.824219 31.742188 C 66.65625 26.988281 63.960938 22.433594 59.625 20.757812 Z M 59.625 20.757812 " fill-opacity="1" fill-rule="evenodd"/></g></g></g><g clip-path="url(#b625e83ba5)"><g clip-path="url(#1be82e82c6)"><g clip-path="url(#ab064b0372)"><path fill="#f6faff" d="M 55.476562 22.660156 C 54.183594 23.292969 53.433594 24.414062 53.796875 25.15625 C 54.164062 25.902344 55.507812 25.992188 56.800781 25.355469 C 58.09375 24.722656 58.84375 23.605469 58.480469 22.859375 C 58.113281 22.113281 56.769531 22.023438 55.476562 22.660156 Z M 55.476562 22.660156 " fill-opacity="1" fill-rule="evenodd"/></g></g></g><g clip-path="url(#3d8b3d9bce)"><g clip-path="url(#bb65966f89)"><g clip-path="url(#8f8e32aa6e)"><path fill="#f6faff" d="M 51.226562 26.519531 C 50.742188 27.15625 50.6875 27.933594 51.105469 28.25 C 51.523438 28.566406 52.253906 28.308594 52.738281 27.667969 C 53.222656 27.03125 53.277344 26.257812 52.859375 25.941406 C 52.441406 25.621094 51.710938 25.882812 51.226562 26.519531 Z M 51.226562 26.519531 " fill-opacity="1" fill-rule="evenodd"/></g></g></g></g></g></g></g><g clip-path="url(#b1b3ce7ae8)"><g transform="matrix(1, 0, 0, 1, -0.000000000000007105, 38)"><g clip-path="url(#29909d00f8)"><g fill="#cde1fd" fill-opacity="1"><g transform="translate(3.465441, 38.582828)"><g><path d="M 23.621094 -35.789062 C 25.457031 -35.789062 27.128906 -35.324219 28.628906 -34.398438 C 30.089844 -33.492188 31.261719 -32.292969 32.144531 -30.796875 C 33.046875 -29.269531 33.496094 -27.628906 33.496094 -25.867188 C 33.496094 -24.039062 33.042969 -22.371094 32.140625 -20.859375 C 31.253906 -19.371094 30.070312 -18.191406 28.597656 -17.320312 C 27.105469 -16.4375 25.445312 -15.996094 23.621094 -15.996094 C 22.214844 -15.996094 20.941406 -16.21875 19.789062 -16.667969 C 19.058594 -16.953125 18.4375 -17.09375 17.929688 -17.09375 C 17.914062 -17.09375 17.898438 -17.085938 17.882812 -17.070312 C 17.867188 -17.054688 17.859375 -17.039062 17.859375 -17.023438 C 17.859375 -17.070312 17.847656 -17.105469 17.824219 -17.128906 C 17.847656 -17.105469 17.882812 -17.09375 17.929688 -17.09375 C 18.4375 -17.09375 19.058594 -17.238281 19.789062 -17.519531 C 20.941406 -17.96875 22.214844 -18.195312 23.621094 -18.195312 C 25.464844 -18.195312 27.140625 -17.71875 28.640625 -16.769531 C 30.101562 -15.847656 31.269531 -14.632812 32.152344 -13.117188 C 33.046875 -11.582031 33.496094 -9.902344 33.496094 -8.082031 C 33.496094 -6.316406 33.042969 -4.679688 32.140625 -3.167969 C 31.257812 -1.691406 30.085938 -0.5 28.628906 0.402344 C 27.128906 1.328125 25.457031 1.792969 23.621094 1.792969 L 16.6875 1.792969 C 14.132812 1.792969 11.738281 1.285156 9.492188 0.269531 C 7.277344 -0.730469 5.316406 -2.109375 3.613281 -3.867188 C 1.910156 -5.621094 0.585938 -7.625 -0.359375 -9.871094 C -1.316406 -12.132812 -1.792969 -14.515625 -1.792969 -17.023438 C -1.792969 -19.628906 -1.304688 -22.0625 -0.332031 -24.328125 C 0.636719 -26.582031 1.984375 -28.566406 3.710938 -30.273438 C 5.433594 -31.980469 7.417969 -33.316406 9.667969 -34.28125 C 11.925781 -35.25 14.335938 -35.753906 16.902344 -35.789062 Z M 23.621094 -32.203125 L 16.949219 -32.203125 C 14.863281 -32.175781 12.90625 -31.769531 11.082031 -30.988281 C 9.25 -30.199219 7.636719 -29.113281 6.234375 -27.726562 C 4.835938 -26.34375 3.746094 -24.738281 2.960938 -22.914062 C 2.183594 -21.097656 1.792969 -19.136719 1.792969 -17.023438 C 1.792969 -15 2.175781 -13.082031 2.941406 -11.265625 C 3.714844 -9.429688 4.796875 -7.796875 6.1875 -6.363281 C 7.574219 -4.933594 9.171875 -3.8125 10.972656 -2.996094 C 12.746094 -2.195312 14.648438 -1.792969 16.6875 -1.792969 L 23.621094 -1.792969 C 24.777344 -1.792969 25.820312 -2.078125 26.742188 -2.648438 C 27.707031 -3.246094 28.480469 -4.03125 29.0625 -5.007812 C 29.625 -5.953125 29.910156 -6.976562 29.910156 -8.082031 C 29.910156 -9.257812 29.621094 -10.335938 29.050781 -11.316406 C 28.464844 -12.320312 27.691406 -13.128906 26.726562 -13.738281 C 25.808594 -14.316406 24.773438 -14.609375 23.621094 -14.609375 C 22.667969 -14.609375 21.824219 -14.464844 21.09375 -14.179688 C 19.941406 -13.730469 18.886719 -13.507812 17.929688 -13.507812 C 16.957031 -13.507812 16.117188 -13.832031 15.40625 -14.480469 C 14.652344 -15.167969 14.273438 -16.015625 14.273438 -17.023438 C 14.273438 -18.027344 14.632812 -18.886719 15.347656 -19.605469 C 16.066406 -20.320312 16.925781 -20.679688 17.929688 -20.679688 C 18.886719 -20.679688 19.941406 -20.457031 21.09375 -20.007812 C 21.824219 -19.722656 22.667969 -19.582031 23.621094 -19.582031 C 24.792969 -19.582031 25.84375 -19.855469 26.769531 -20.40625 C 27.722656 -20.96875 28.484375 -21.734375 29.0625 -22.699219 C 29.625 -23.644531 29.910156 -24.699219 29.910156 -25.867188 C 29.910156 -26.976562 29.625 -28.011719 29.058594 -28.972656 C 28.472656 -29.960938 27.703125 -30.753906 26.742188 -31.347656 C 25.820312 -31.917969 24.777344 -32.203125 23.621094 -32.203125 Z M 23.621094 -32.203125 "/></g></g></g><g fill="#cde1fd" fill-opacity="1"><g transform="translate(34.927887, 38.582828)"><g><path d="M 7.746094 1.792969 C 5.960938 1.792969 4.332031 1.371094 2.863281 0.527344 C 1.386719 -0.320312 0.234375 -1.464844 -0.597656 -2.90625 C -1.433594 -4.359375 -1.832031 -5.984375 -1.792969 -7.785156 L -1.792969 -26.441406 C -1.792969 -28.175781 -1.367188 -29.753906 -0.511719 -31.1875 C 0.328125 -32.59375 1.453125 -33.714844 2.859375 -34.554688 C 4.289062 -35.410156 5.871094 -35.835938 7.601562 -35.835938 C 9.367188 -35.835938 10.964844 -35.410156 12.394531 -34.554688 C 13.800781 -33.714844 14.925781 -32.59375 15.765625 -31.1875 C 16.617188 -29.753906 17.046875 -28.175781 17.046875 -26.441406 L 16.949219 -15.285156 L 15.15625 -15.300781 L 15.15625 -17.09375 L 16.832031 -17.09375 C 18.851562 -17.09375 20.5625 -16.628906 21.960938 -15.691406 C 23.335938 -14.777344 24.371094 -13.589844 25.070312 -12.132812 C 25.746094 -10.722656 26.082031 -9.230469 26.082031 -7.652344 C 26.082031 -6.070312 25.746094 -4.578125 25.070312 -3.167969 C 24.371094 -1.710938 23.335938 -0.523438 21.960938 0.390625 C 20.5625 1.324219 18.851562 1.792969 16.832031 1.792969 Z M 7.746094 -1.792969 L 16.832031 -1.792969 C 18.125 -1.792969 19.171875 -2.058594 19.972656 -2.589844 C 20.800781 -3.144531 21.421875 -3.851562 21.835938 -4.71875 C 22.277344 -5.636719 22.496094 -6.617188 22.496094 -7.652344 C 22.496094 -8.6875 22.277344 -9.664062 21.835938 -10.582031 C 21.421875 -11.449219 20.800781 -12.15625 19.972656 -12.710938 C 19.171875 -13.242188 18.125 -13.507812 16.832031 -13.507812 L 13.347656 -13.507812 L 13.460938 -26.441406 C 13.460938 -27.515625 13.203125 -28.484375 12.6875 -29.347656 C 12.15625 -30.238281 11.445312 -30.945312 10.554688 -31.476562 C 9.691406 -31.992188 8.707031 -32.25 7.601562 -32.25 C 6.53125 -32.25 5.5625 -31.992188 4.695312 -31.476562 C 3.808594 -30.945312 3.097656 -30.238281 2.566406 -29.347656 C 2.050781 -28.484375 1.792969 -27.515625 1.792969 -26.441406 L 1.792969 -7.707031 C 1.769531 -6.574219 2.007812 -5.570312 2.511719 -4.695312 C 3.019531 -3.8125 3.730469 -3.109375 4.644531 -2.582031 C 5.566406 -2.054688 6.597656 -1.792969 7.746094 -1.792969 Z M 7.746094 -1.792969 "/></g></g></g><g fill="#cde1fd" fill-opacity="1"><g transform="translate(58.548625, 38.582828)"><g><path d="M -1.792969 -26.296875 C -1.792969 -28.046875 -1.390625 -29.636719 -0.582031 -31.074219 C 0.226562 -32.519531 1.355469 -33.664062 2.796875 -34.511719 C 4.238281 -35.363281 5.875 -35.789062 7.699219 -35.789062 L 20.179688 -35.789062 C 22.035156 -35.789062 23.679688 -35.316406 25.113281 -34.367188 C 26.507812 -33.445312 27.578125 -32.242188 28.328125 -30.765625 C 29.066406 -29.308594 29.425781 -27.757812 29.40625 -26.109375 C 29.386719 -24.417969 28.902344 -22.820312 27.957031 -21.324219 C 27.003906 -19.777344 25.800781 -18.679688 24.347656 -18.035156 C 23.023438 -17.453125 21.535156 -17.121094 19.875 -17.046875 L 19.796875 -17.046875 C 20.246094 -17.046875 20.628906 -17.21875 20.941406 -17.566406 C 21.214844 -17.867188 21.347656 -18.203125 21.347656 -18.578125 C 21.347656 -18.851562 21.269531 -19.109375 21.109375 -19.351562 C 20.941406 -19.597656 20.726562 -19.777344 20.460938 -19.882812 L 19.796875 -18.21875 L 20.011719 -19.996094 C 21.089844 -19.867188 22.136719 -19.9375 23.15625 -20.210938 C 24.078125 -20.460938 24.90625 -20.960938 25.632812 -21.710938 L 27.460938 -23.605469 L 28.550781 -21.207031 C 29.332031 -19.492188 29.589844 -17.640625 29.316406 -15.65625 C 29.039062 -13.617188 28.234375 -11.925781 26.898438 -10.589844 L 25.628906 -11.859375 L 26.976562 -10.671875 C 26.070312 -9.648438 25.011719 -8.914062 23.800781 -8.476562 C 22.75 -8.09375 21.648438 -7.832031 20.496094 -7.6875 L 20.386719 -7.675781 L 20.273438 -7.675781 C 20.753906 -7.675781 21.152344 -7.867188 21.472656 -8.246094 C 21.710938 -8.53125 21.828125 -8.84375 21.828125 -9.179688 C 21.828125 -9.519531 21.710938 -9.828125 21.472656 -10.113281 C 21.152344 -10.496094 20.753906 -10.6875 20.273438 -10.6875 L 20.367188 -10.6875 L 20.457031 -10.675781 C 21.480469 -10.574219 22.472656 -10.652344 23.441406 -10.910156 C 24.261719 -11.132812 24.996094 -11.628906 25.648438 -12.398438 L 27.246094 -14.28125 L 28.542969 -12.175781 C 28.902344 -11.589844 29.164062 -10.941406 29.316406 -10.234375 C 29.457031 -9.597656 29.527344 -8.703125 29.527344 -7.554688 C 29.527344 -6.632812 29.351562 -5.640625 29.007812 -4.582031 C 28.652344 -3.5 28.097656 -2.488281 27.34375 -1.539062 C 26.566406 -0.558594 25.59375 0.234375 24.429688 0.847656 C 23.230469 1.476562 21.8125 1.792969 20.179688 1.792969 L 7.601562 1.792969 C 5.875 1.792969 4.289062 1.367188 2.84375 0.515625 C 1.410156 -0.328125 0.28125 -1.457031 -0.542969 -2.875 C -1.375 -4.300781 -1.792969 -5.859375 -1.792969 -7.554688 Z M 1.792969 -26.296875 L 1.792969 -7.554688 C 1.792969 -6.507812 2.046875 -5.550781 2.554688 -4.679688 C 3.066406 -3.800781 3.769531 -3.101562 4.664062 -2.574219 C 5.546875 -2.054688 6.527344 -1.792969 7.601562 -1.792969 L 20.179688 -1.792969 C 21.222656 -1.792969 22.082031 -1.972656 22.761719 -2.328125 C 23.480469 -2.707031 24.070312 -3.1875 24.535156 -3.769531 C 25.023438 -4.382812 25.378906 -5.027344 25.597656 -5.699219 C 25.824219 -6.394531 25.941406 -7.011719 25.941406 -7.554688 C 25.941406 -8.445312 25.898438 -9.082031 25.8125 -9.464844 C 25.746094 -9.777344 25.636719 -10.054688 25.488281 -10.296875 L 27.015625 -11.238281 L 28.382812 -10.078125 C 27.25 -8.742188 25.914062 -7.867188 24.375 -7.449219 C 22.980469 -7.074219 21.554688 -6.960938 20.089844 -7.109375 L 20.273438 -8.894531 L 20.273438 -7.101562 C 19.632812 -7.101562 19.113281 -7.339844 18.71875 -7.816406 C 18.398438 -8.199219 18.242188 -8.652344 18.242188 -9.179688 C 18.242188 -9.707031 18.398438 -10.164062 18.71875 -10.542969 C 19.113281 -11.023438 19.632812 -11.261719 20.273438 -11.261719 L 20.273438 -9.46875 L 20.050781 -11.246094 C 20.9375 -11.359375 21.78125 -11.558594 22.578125 -11.847656 C 23.214844 -12.078125 23.785156 -12.476562 24.28125 -13.042969 L 24.320312 -13.085938 L 24.359375 -13.125 C 25.128906 -13.894531 25.597656 -14.898438 25.765625 -16.140625 C 25.941406 -17.441406 25.78125 -18.632812 25.289062 -19.722656 L 26.921875 -20.464844 L 28.207031 -19.21875 C 27.023438 -17.992188 25.648438 -17.167969 24.085938 -16.75 C 22.617188 -16.355469 21.117188 -16.25 19.578125 -16.4375 L 19.347656 -16.464844 L 19.128906 -16.554688 C 18.707031 -16.722656 18.371094 -16.992188 18.125 -17.359375 C 17.882812 -17.722656 17.761719 -18.125 17.761719 -18.578125 C 17.761719 -19.125 17.9375 -19.59375 18.289062 -19.980469 C 18.683594 -20.414062 19.1875 -20.632812 19.796875 -20.632812 L 19.796875 -18.839844 L 19.714844 -20.628906 C 20.925781 -20.683594 21.984375 -20.914062 22.894531 -21.316406 C 23.671875 -21.660156 24.347656 -22.300781 24.925781 -23.238281 C 25.511719 -24.164062 25.808594 -25.136719 25.820312 -26.152344 C 25.832031 -27.214844 25.601562 -28.210938 25.128906 -29.144531 C 24.667969 -30.058594 24 -30.804688 23.132812 -31.378906 C 22.300781 -31.929688 21.316406 -32.203125 20.179688 -32.203125 L 7.699219 -32.203125 C 6.527344 -32.203125 5.5 -31.945312 4.617188 -31.421875 C 3.730469 -30.902344 3.039062 -30.199219 2.542969 -29.316406 C 2.042969 -28.425781 1.792969 -27.421875 1.792969 -26.296875 Z M 1.792969 -26.296875 "/></g></g></g><g fill="#cde1fd" fill-opacity="1"><g transform="translate(85.707691, 38.582828)"><g><path d="M 3.375 0.992188 C 1.847656 0.246094 0.617188 -0.808594 -0.308594 -2.171875 C -1.238281 -3.53125 -1.769531 -5.027344 -1.90625 -6.664062 C -2.042969 -8.308594 -1.757812 -9.878906 -1.046875 -11.382812 L 7.988281 -30.554688 C 8.8125 -32.320312 10.007812 -33.664062 11.570312 -34.585938 C 13.085938 -35.480469 14.714844 -35.9375 16.453125 -35.957031 C 18.199219 -35.976562 19.835938 -35.546875 21.359375 -34.664062 C 22.925781 -33.761719 24.136719 -32.410156 25 -30.609375 L 34.132812 -11.382812 C 34.882812 -9.886719 35.175781 -8.304688 35.015625 -6.640625 C 34.859375 -5.019531 34.332031 -3.535156 33.433594 -2.183594 C 32.515625 -0.808594 31.269531 0.25 29.699219 0.996094 C 28.15625 1.710938 26.558594 1.996094 24.90625 1.859375 C 23.25 1.71875 21.746094 1.1875 20.402344 0.253906 C 19.058594 -0.671875 18.019531 -1.898438 17.273438 -3.421875 L 13.109375 -12.191406 L 13.074219 -12.296875 C 13.234375 -11.816406 13.550781 -11.484375 14.023438 -11.292969 C 14.34375 -11.164062 14.660156 -11.140625 14.972656 -11.21875 C 15.441406 -11.335938 15.785156 -11.617188 16.007812 -12.058594 C 16.167969 -12.378906 16.214844 -12.699219 16.152344 -13.023438 L 14.390625 -12.671875 L 16.136719 -13.089844 L 17.574219 -7.128906 L 15.878906 -3.457031 C 15.121094 -1.90625 14.0625 -0.664062 12.699219 0.261719 C 11.339844 1.1875 9.84375 1.71875 8.207031 1.859375 C 6.574219 1.996094 4.980469 1.714844 3.425781 1.011719 L 3.398438 1.003906 Z M 4.945312 -2.234375 L 4.160156 -0.621094 L 4.894531 -2.257812 C 5.886719 -1.808594 6.890625 -1.628906 7.90625 -1.714844 C 8.917969 -1.800781 9.839844 -2.128906 10.679688 -2.703125 C 11.519531 -3.273438 12.164062 -4.023438 12.621094 -4.960938 L 14.054688 -8.066406 L 15.683594 -7.316406 L 13.941406 -6.894531 L 12.640625 -12.285156 L 12.632812 -12.320312 C 12.539062 -12.800781 12.59375 -13.25 12.800781 -13.664062 C 13.070312 -14.203125 13.503906 -14.546875 14.101562 -14.699219 C 14.539062 -14.808594 14.957031 -14.78125 15.355469 -14.621094 C 15.910156 -14.402344 16.285156 -14.003906 16.476562 -13.429688 L 14.773438 -12.863281 L 16.394531 -13.632812 L 20.5 -4.992188 C 20.96875 -4.03125 21.613281 -3.265625 22.441406 -2.695312 C 23.261719 -2.125 24.183594 -1.800781 25.203125 -1.714844 C 26.230469 -1.628906 27.214844 -1.804688 28.160156 -2.242188 C 29.136719 -2.707031 29.898438 -3.347656 30.449219 -4.175781 C 31.015625 -5.023438 31.347656 -5.960938 31.445312 -6.984375 C 31.542969 -7.964844 31.355469 -8.917969 30.894531 -9.84375 L 21.765625 -29.0625 C 21.222656 -30.195312 20.492188 -31.027344 19.570312 -31.558594 C 18.609375 -32.113281 17.582031 -32.382812 16.492188 -32.371094 C 15.394531 -32.359375 14.359375 -32.066406 13.390625 -31.496094 C 12.464844 -30.949219 11.746094 -30.128906 11.234375 -29.023438 L 2.195312 -9.847656 C 1.757812 -8.925781 1.582031 -7.964844 1.667969 -6.964844 C 1.753906 -5.953125 2.082031 -5.03125 2.652344 -4.1875 C 3.222656 -3.351562 3.988281 -2.699219 4.945312 -2.234375 Z M 4.945312 -2.234375 "/></g></g></g><g clip-path="url(#d49f90e20e)"><g fill="#cde1fd" fill-opacity="1"><g transform="translate(118.317698, 38.582828)"><g><path d="M 35.742188 -7.554688 C 35.742188 -5.773438 35.359375 -4.210938 34.601562 -2.867188 C 33.84375 -1.53125 32.835938 -0.480469 31.585938 0.285156 C 30.378906 1.027344 29.0625 1.484375 27.640625 1.660156 C 26.222656 1.835938 24.824219 1.710938 23.449219 1.28125 C 22.035156 0.84375 20.792969 0.0898438 19.722656 -0.980469 L 15.582031 -5 C 14.195312 -6.339844 12.824219 -7.71875 11.46875 -9.136719 L 11.230469 -9.386719 L 11.101562 -9.710938 C 11.183594 -9.507812 11.308594 -9.328125 11.476562 -9.167969 C 11.800781 -8.855469 12.1875 -8.703125 12.640625 -8.703125 C 12.96875 -8.703125 13.261719 -8.789062 13.527344 -8.957031 C 13.632812 -9.023438 13.71875 -9.097656 13.789062 -9.175781 C 13.914062 -9.316406 14.003906 -9.492188 14.058594 -9.703125 C 14.132812 -9.996094 14.113281 -10.285156 14 -10.5625 L 12.335938 -9.898438 L 13.839844 -10.871094 L 16.96875 -6.042969 L 16.816406 -5.320312 C 16.375 -3.234375 15.28125 -1.511719 13.539062 -0.144531 C 11.8125 1.210938 9.847656 1.890625 7.652344 1.890625 C 5.921875 1.890625 4.335938 1.464844 2.890625 0.613281 C 1.464844 -0.226562 0.332031 -1.351562 -0.511719 -2.761719 C -1.367188 -4.191406 -1.792969 -5.789062 -1.792969 -7.554688 L -1.792969 -26.394531 C -1.792969 -28.125 -1.367188 -29.707031 -0.511719 -31.136719 C 0.328125 -32.542969 1.457031 -33.671875 2.875 -34.527344 C 4.324219 -35.402344 5.914062 -35.835938 7.652344 -35.835938 C 9.089844 -35.835938 10.445312 -35.507812 11.722656 -34.847656 C 12.921875 -34.230469 13.941406 -33.484375 14.78125 -32.605469 L 13.484375 -31.367188 L 14.738281 -32.644531 L 22.746094 -24.785156 L 22.882812 -24.519531 C 22.789062 -24.703125 22.664062 -24.863281 22.5 -25.003906 C 22.261719 -25.207031 21.988281 -25.332031 21.675781 -25.382812 C 21.269531 -25.445312 20.910156 -25.371094 20.59375 -25.160156 C 20.335938 -24.988281 20.152344 -24.746094 20.039062 -24.425781 C 19.886719 -24.003906 19.90625 -23.59375 20.105469 -23.203125 L 21.707031 -24.003906 L 20.230469 -22.988281 L 16.960938 -27.753906 L 17.140625 -28.527344 C 17.457031 -29.867188 18.046875 -31.085938 18.910156 -32.1875 C 19.769531 -33.28125 20.832031 -34.160156 22.097656 -34.820312 C 23.394531 -35.5 24.777344 -35.835938 26.25 -35.835938 C 28.015625 -35.835938 29.625 -35.402344 31.074219 -34.527344 C 32.492188 -33.671875 33.621094 -32.542969 34.460938 -31.136719 C 35.316406 -29.707031 35.742188 -28.125 35.742188 -26.394531 Z M 32.15625 -7.554688 L 32.15625 -26.394531 C 32.15625 -27.46875 31.898438 -28.433594 31.382812 -29.300781 C 30.847656 -30.191406 30.128906 -30.910156 29.222656 -31.457031 C 28.34375 -31.988281 27.351562 -32.25 26.25 -32.25 C 25.363281 -32.25 24.535156 -32.046875 23.757812 -31.644531 C 22.949219 -31.21875 22.273438 -30.664062 21.730469 -29.972656 C 21.191406 -29.289062 20.828125 -28.53125 20.632812 -27.703125 L 18.886719 -28.117188 L 20.367188 -29.128906 L 23.257812 -24.914062 L 23.3125 -24.804688 C 23.570312 -24.285156 23.605469 -23.757812 23.414062 -23.222656 C 23.261719 -22.792969 22.984375 -22.445312 22.582031 -22.175781 C 22.125 -21.871094 21.640625 -21.757812 21.128906 -21.835938 C 20.769531 -21.890625 20.445312 -22.039062 20.167969 -22.28125 C 19.960938 -22.457031 19.796875 -22.667969 19.675781 -22.914062 L 21.277344 -23.714844 L 20.023438 -22.4375 L 12.207031 -30.105469 L 12.1875 -30.128906 C 11.625 -30.714844 10.921875 -31.226562 10.082031 -31.660156 C 9.316406 -32.054688 8.507812 -32.25 7.652344 -32.25 C 6.582031 -32.25 5.605469 -31.988281 4.726562 -31.457031 C 3.820312 -30.910156 3.097656 -30.191406 2.566406 -29.300781 C 2.050781 -28.433594 1.792969 -27.46875 1.792969 -26.394531 L 1.792969 -7.554688 C 1.792969 -6.449219 2.050781 -5.464844 2.566406 -4.601562 C 3.097656 -3.714844 3.8125 -3.007812 4.710938 -2.476562 C 5.59375 -1.957031 6.574219 -1.699219 7.652344 -1.699219 C 9.023438 -1.699219 10.246094 -2.121094 11.324219 -2.964844 C 12.386719 -3.796875 13.046875 -4.828125 13.308594 -6.0625 L 15.0625 -5.691406 L 13.558594 -4.714844 L 10.738281 -9.070312 L 10.671875 -9.230469 C 10.496094 -9.671875 10.464844 -10.117188 10.578125 -10.570312 C 10.671875 -10.941406 10.851562 -11.273438 11.125 -11.574219 C 11.550781 -12.050781 12.058594 -12.289062 12.640625 -12.289062 C 13.144531 -12.289062 13.582031 -12.113281 13.949219 -11.765625 C 14.15625 -11.5625 14.320312 -11.324219 14.429688 -11.042969 L 12.765625 -10.375 L 14.0625 -11.613281 C 15.386719 -10.230469 16.722656 -8.882812 18.082031 -7.574219 L 22.257812 -3.515625 C 22.910156 -2.863281 23.660156 -2.40625 24.511719 -2.144531 C 25.394531 -1.867188 26.292969 -1.785156 27.203125 -1.898438 C 28.109375 -2.011719 28.945312 -2.300781 29.710938 -2.773438 C 30.4375 -3.214844 31.027344 -3.839844 31.480469 -4.636719 C 31.929688 -5.429688 32.15625 -6.402344 32.15625 -7.554688 Z M 32.15625 -7.554688 "/></g></g></g></g><g fill="#ffffff" fill-opacity="1"><g transform="translate(3.465441, 38.582828)"><g><path d="M 23.625 -34 C 25.113281 -34 26.460938 -33.625 27.671875 -32.875 C 28.890625 -32.125 29.863281 -31.125 30.59375 -29.875 C 31.332031 -28.632812 31.703125 -27.296875 31.703125 -25.859375 C 31.703125 -24.367188 31.332031 -23.007812 30.59375 -21.78125 C 29.863281 -20.550781 28.890625 -19.578125 27.671875 -18.859375 C 26.460938 -18.140625 25.113281 -17.78125 23.625 -17.78125 C 22.4375 -17.78125 21.375 -17.960938 20.4375 -18.328125 C 19.5 -18.703125 18.660156 -18.890625 17.921875 -18.890625 C 17.421875 -18.890625 16.984375 -18.703125 16.609375 -18.328125 C 16.242188 -17.960938 16.0625 -17.523438 16.0625 -17.015625 C 16.0625 -16.535156 16.242188 -16.128906 16.609375 -15.796875 C 16.984375 -15.460938 17.421875 -15.296875 17.921875 -15.296875 C 18.660156 -15.296875 19.5 -15.476562 20.4375 -15.84375 C 21.375 -16.21875 22.4375 -16.40625 23.625 -16.40625 C 25.113281 -16.40625 26.460938 -16.019531 27.671875 -15.25 C 28.890625 -14.488281 29.863281 -13.476562 30.59375 -12.21875 C 31.332031 -10.957031 31.703125 -9.578125 31.703125 -8.078125 C 31.703125 -6.640625 31.332031 -5.304688 30.59375 -4.078125 C 29.863281 -2.859375 28.890625 -1.875 27.671875 -1.125 C 26.460938 -0.375 25.113281 0 23.625 0 L 16.6875 0 C 14.394531 0 12.242188 -0.453125 10.234375 -1.359375 C 8.222656 -2.265625 6.441406 -3.515625 4.890625 -5.109375 C 3.347656 -6.703125 2.144531 -8.519531 1.28125 -10.5625 C 0.425781 -12.601562 0 -14.753906 0 -17.015625 C 0 -19.378906 0.4375 -21.578125 1.3125 -23.609375 C 2.1875 -25.648438 3.40625 -27.441406 4.96875 -28.984375 C 6.53125 -30.535156 8.332031 -31.75 10.375 -32.625 C 12.414062 -33.507812 14.597656 -33.96875 16.921875 -34 Z M 23.625 -34 "/></g></g></g><g fill="#ffffff" fill-opacity="1"><g transform="translate(34.927887, 38.582828)"><g><path d="M 7.75 0 C 6.28125 0 4.945312 -0.34375 3.75 -1.03125 C 2.550781 -1.71875 1.617188 -2.640625 0.953125 -3.796875 C 0.285156 -4.960938 -0.03125 -6.28125 0 -7.75 L 0 -26.4375 C 0 -27.84375 0.34375 -29.117188 1.03125 -30.265625 C 1.71875 -31.410156 2.632812 -32.328125 3.78125 -33.015625 C 4.925781 -33.703125 6.203125 -34.046875 7.609375 -34.046875 C 9.035156 -34.046875 10.320312 -33.703125 11.46875 -33.015625 C 12.625 -32.328125 13.539062 -31.410156 14.21875 -30.265625 C 14.90625 -29.117188 15.25 -27.84375 15.25 -26.4375 L 15.15625 -15.296875 L 16.828125 -15.296875 C 18.484375 -15.296875 19.859375 -14.925781 20.953125 -14.1875 C 22.054688 -13.457031 22.882812 -12.507812 23.4375 -11.34375 C 24 -10.1875 24.28125 -8.953125 24.28125 -7.640625 C 24.28125 -6.335938 24 -5.101562 23.4375 -3.9375 C 22.882812 -2.78125 22.054688 -1.832031 20.953125 -1.09375 C 19.859375 -0.363281 18.484375 0 16.828125 0 Z M 7.75 0 "/></g></g></g><g fill="#ffffff" fill-opacity="1"><g transform="translate(58.548625, 38.582828)"><g><path d="M 0 -26.296875 C 0 -27.734375 0.320312 -29.03125 0.96875 -30.1875 C 1.625 -31.351562 2.535156 -32.28125 3.703125 -32.96875 C 4.867188 -33.65625 6.203125 -34 7.703125 -34 L 20.171875 -34 C 21.671875 -34 22.984375 -33.625 24.109375 -32.875 C 25.242188 -32.125 26.113281 -31.148438 26.71875 -29.953125 C 27.332031 -28.753906 27.628906 -27.476562 27.609375 -26.125 C 27.597656 -24.769531 27.207031 -23.488281 26.4375 -22.28125 C 25.675781 -21.039062 24.738281 -20.171875 23.625 -19.671875 C 22.507812 -19.179688 21.234375 -18.90625 19.796875 -18.84375 C 19.640625 -18.84375 19.5625 -18.753906 19.5625 -18.578125 C 19.5625 -18.398438 19.640625 -18.28125 19.796875 -18.21875 C 21.097656 -18.0625 22.367188 -18.148438 23.609375 -18.484375 C 24.859375 -18.816406 25.960938 -19.476562 26.921875 -20.46875 C 27.554688 -19.0625 27.757812 -17.535156 27.53125 -15.890625 C 27.3125 -14.253906 26.675781 -12.910156 25.625 -11.859375 C 24.925781 -11.054688 24.113281 -10.488281 23.1875 -10.15625 C 22.257812 -9.820312 21.285156 -9.59375 20.265625 -9.46875 C 20.109375 -9.46875 20.03125 -9.367188 20.03125 -9.171875 C 20.03125 -8.984375 20.109375 -8.890625 20.265625 -8.890625 C 21.515625 -8.765625 22.726562 -8.859375 23.90625 -9.171875 C 25.082031 -9.492188 26.117188 -10.179688 27.015625 -11.234375 C 27.265625 -10.816406 27.445312 -10.351562 27.5625 -9.84375 C 27.675781 -9.332031 27.734375 -8.566406 27.734375 -7.546875 C 27.734375 -6.816406 27.585938 -6.015625 27.296875 -5.140625 C 27.015625 -4.265625 26.5625 -3.4375 25.9375 -2.65625 C 25.3125 -1.875 24.53125 -1.234375 23.59375 -0.734375 C 22.65625 -0.242188 21.515625 0 20.171875 0 L 7.609375 0 C 6.203125 0 4.914062 -0.34375 3.75 -1.03125 C 2.59375 -1.71875 1.675781 -2.632812 1 -3.78125 C 0.332031 -4.925781 0 -6.179688 0 -7.546875 Z M 0 -26.296875 "/></g></g></g><g fill="#ffffff" fill-opacity="1"><g transform="translate(85.707691, 38.582828)"><g><path d="M 4.15625 -0.625 C 2.914062 -1.226562 1.921875 -2.078125 1.171875 -3.171875 C 0.421875 -4.273438 -0.00390625 -5.488281 -0.109375 -6.8125 C -0.222656 -8.132812 0.00390625 -9.398438 0.578125 -10.609375 L 9.609375 -29.78125 C 10.273438 -31.21875 11.226562 -32.300781 12.46875 -33.03125 C 13.71875 -33.769531 15.050781 -34.144531 16.46875 -34.15625 C 17.882812 -34.175781 19.210938 -33.828125 20.453125 -33.109375 C 21.703125 -32.390625 22.675781 -31.296875 23.375 -29.828125 L 32.515625 -10.609375 C 33.117188 -9.398438 33.351562 -8.132812 33.21875 -6.8125 C 33.09375 -5.488281 32.664062 -4.273438 31.9375 -3.171875 C 31.207031 -2.078125 30.203125 -1.226562 28.921875 -0.625 C 27.679688 -0.0507812 26.390625 0.175781 25.046875 0.0625 C 23.710938 -0.0390625 22.503906 -0.46875 21.421875 -1.21875 C 20.335938 -1.96875 19.492188 -2.960938 18.890625 -4.203125 L 14.78125 -12.859375 C 14.738281 -12.953125 14.65625 -12.984375 14.53125 -12.953125 C 14.40625 -12.921875 14.359375 -12.828125 14.390625 -12.671875 L 15.6875 -7.3125 L 14.25 -4.203125 C 13.644531 -2.960938 12.789062 -1.96875 11.6875 -1.21875 C 10.59375 -0.46875 9.382812 -0.0390625 8.0625 0.0625 C 6.738281 0.175781 5.4375 -0.0507812 4.15625 -0.625 Z M 4.15625 -0.625 "/></g></g></g><g fill="#ffffff" fill-opacity="1"><g transform="translate(118.317698, 38.582828)"><g><path d="M 33.953125 -7.546875 C 33.953125 -6.085938 33.644531 -4.820312 33.03125 -3.75 C 32.425781 -2.6875 31.628906 -1.847656 30.640625 -1.234375 C 29.660156 -0.628906 28.585938 -0.253906 27.421875 -0.109375 C 26.253906 0.0234375 25.101562 -0.078125 23.96875 -0.421875 C 22.84375 -0.773438 21.847656 -1.382812 20.984375 -2.25 C 19.585938 -3.613281 18.203125 -4.957031 16.828125 -6.28125 C 15.460938 -7.601562 14.109375 -8.96875 12.765625 -10.375 C 12.703125 -10.53125 12.597656 -10.53125 12.453125 -10.375 C 12.304688 -10.21875 12.265625 -10.054688 12.328125 -9.890625 L 15.0625 -5.6875 C 14.707031 -4.03125 13.828125 -2.648438 12.421875 -1.546875 C 11.023438 -0.453125 9.4375 0.09375 7.65625 0.09375 C 6.25 0.09375 4.960938 -0.242188 3.796875 -0.921875 C 2.640625 -1.609375 1.71875 -2.523438 1.03125 -3.671875 C 0.34375 -4.828125 0 -6.117188 0 -7.546875 L 0 -26.390625 C 0 -27.796875 0.34375 -29.070312 1.03125 -30.21875 C 1.71875 -31.363281 2.640625 -32.285156 3.796875 -32.984375 C 4.960938 -33.691406 6.25 -34.046875 7.65625 -34.046875 C 8.800781 -34.046875 9.882812 -33.78125 10.90625 -33.25 C 11.925781 -32.726562 12.785156 -32.097656 13.484375 -31.359375 L 21.28125 -23.71875 C 21.34375 -23.59375 21.441406 -23.578125 21.578125 -23.671875 C 21.722656 -23.765625 21.765625 -23.875 21.703125 -24 L 18.890625 -28.109375 C 19.140625 -29.191406 19.613281 -30.179688 20.3125 -31.078125 C 21.019531 -31.972656 21.890625 -32.691406 22.921875 -33.234375 C 23.960938 -33.773438 25.070312 -34.046875 26.25 -34.046875 C 27.6875 -34.046875 28.984375 -33.691406 30.140625 -32.984375 C 31.304688 -32.285156 32.234375 -31.363281 32.921875 -30.21875 C 33.609375 -29.070312 33.953125 -27.796875 33.953125 -26.390625 Z M 33.953125 -7.546875 "/></g></g></g></g></g></g></g></g></svg>